<svg id="Layer_1" data-name="Layer 1" xmlns="http://www.w3.org/2000/svg" viewBox="0 0 518.23 288.56"><defs><style>.cls-1{fill:#464646;}.cls-2{fill:#252525;}.cls-3{fill:#434343;}.cls-4{fill:#303030;}.cls-5{fill:#614144;}.cls-6{fill:#140a09;}.cls-7{fill:#5c3c3e;}.cls-8{fill:#282525;}.cls-9{fill:#383633;}.cls-10{fill:#40413f;}.cls-11{fill:#6e6e6f;}.cls-12{fill:#555;}.cls-13{fill:#202120;}.cls-14{fill:#500808;}.cls-15{fill:#3c0f0f;}.cls-16{fill:#3d100e;}.cls-17{fill:#644649;}.cls-18{fill:#f18d88;}.cls-19{fill:#6c0a0a;}.cls-20{fill:#e26863;}.cls-21{fill:#e6706a;}.cls-22{fill:#d44844;}.cls-23{fill:#d73f3b;}</style></defs><title>Artboard 1</title><path class="cls-1" d="M459.59,291.85h-250c-13.39-11.32-19.36-35.59-26.93-55.24-8.29-21.5-17.38-39.63-28.84-55.15-5.47-7.4-12-16.89-1.83-28.61,2.79-1.22,5.48-.31,8.12,1.39a18.51,18.51,0,0,1,4,3.58c.81.69,1.63,1.43,2.46,2.06a22.12,22.12,0,0,1,3.65,2.79,45.19,45.19,0,0,1,3.5,3.21c1.09,1.26,2,3,3,4.35a28.23,28.23,0,0,0,3.32,3.33,30.59,30.59,0,0,0,3.39,2.94,13.21,13.21,0,0,1,2.34,1.53c.74.64,1.47,1.32,2.21,2a20,20,0,0,0,2.35,1.29,7.15,7.15,0,0,1,2.26,1.65,20.39,20.39,0,0,1,2,2.51c.33.39.64.83,1,1.23a13,13,0,0,0,3.17,3,19.84,19.84,0,0,1,2.35,1.85,17.46,17.46,0,0,0,5.42,2.58c17.38,13.3,33.41,31.85,52.12,42.91,17.45-11.11,34.22-26.35,50.75-42.55,12.65-6.57,23.59-19.57,35.24-29.91,23.23-15.43,44.9-37.1,67.1-56.32,15.17-13.13,30.08-27.4,45.72-38.83,5-3.65,10.45-7.63,14.09,4.52-1.67,67.81-5.2,135.35-8.46,202.93C462.75,282.65,462,287.75,459.59,291.85Z"/><path class="cls-2" d="M8.68-1.15H256.33c2.25,3.93,4.6,7.91,4.66,14,.52,50.78,2.52,101.61-1.14,152.24-4.45,15.77-11.8,10.61-18.2,6.79-20.17-12-40-26.07-60.53-35.9-35.49-17-69.53-42.21-105.18-58.2a55.79,55.79,0,0,1-14.21-8.86c-4.61-4-9.95-9.39-15-.4-4.67,31.26,1,61.88,1.91,92.66,1.17,37.92,2.58,75.92,5.4,113.65.48,6.44-.61,12.38-3.34,17H41.39c-8.69-18.79-5.88-42.1-7.35-63.48-2.27-32.87-2.14-66.14-3.52-99.15-2.26-16.68-2-33.93-3.13-50.88-1-15.59-4.1-27.48-11-36.64Q9.74,32.78,7.6,18.3C7,11.65,5.37,4.8,8.68-1.15Z"/><path class="cls-3" d="M256.48,170.24,256.33-1.15H483c8.69,22.26,4.77,46.58-9.54,59.21-21.55,13.35-42.76,27.77-65.28,36.84-15.49,6.24-30.83,17.62-46.31,26.32-31,17.45-61.88,35.86-92.87,53.52C264.3,177.4,259.81,179.11,256.48,170.24Z"/><path class="cls-4" d="M153.77,158.05c-1.49.73-3,1.46-3.7,7.3,27.71,29.16,43,78.76,59.54,126.5H57.75c-2.35-4.1-3.19-9.15-3.44-15-2.83-66.19-6.14-132.31-8.67-198.54a28.36,28.36,0,0,1,1-6.73c4.95-10.25,10.6-6.18,16.54-1.77,8.9,6.61,16.45,18.08,25.88,22.58,16.8,15.88,35.65,23.82,51.82,42.06C146.05,140.34,153.69,142.86,153.77,158.05Z"/><path class="cls-5" d="M513.33,291.85H476c-8.21-14.32-3.91-32.15-2.68-47.34,2.67-33.11.65-66.43,3.43-99.58,2-23.71,3-48,3.18-72.4.18-30.17,13.93-46.61,24.63-65.1,3.39-5.85,8.93-6,10.87,6,.64,86.88.13,173.74.26,260.61C515.65,280.26,515.83,286.63,513.33,291.85Z"/><path class="cls-6" d="M91,99.87C76.09,97.38,64.82,77.13,50,71.71c-.06,74.62,8,146.92,7.71,220.14H55.41c-3.47-9.79-4.29-21.29-4.38-32.05-.35-44.47-4.36-88.41-5.33-132.82-.42-19.25-2.17-38.57-2.07-58-.17-2.45-.3-4.9-.4-7.37l.24-3.67-.23-8.26c71.2,41.91,142,82.46,213.24,120.57,14.64-.75,28.1-11.18,41.45-19.51,28.65-17.87,57.95-31.78,86.69-49s57.7-32.66,86.57-48.88c1.46-2,2.45-.28,3.46,1.4a18.06,18.06,0,0,1,.78,4.8,63.41,63.41,0,0,1-1,7.51c-.66,2.45-1.65,4.28-3.08,5.3-1,.22-1.88-.33-2.6-1.63-33.61,25-66.27,53.77-99.09,81.89-8,6.87-16.39,12.43-24.59,18.59-2.35,1.21-2.89-1.32-3-4.67.5-2.71,1.36-5.14,2.79-6.32C363,144.86,379,122.37,397,113.11c-8,5.34-17.4,12.31-27.43,15.39a20.16,20.16,0,0,1-2.95,1.83,17.84,17.84,0,0,0-5.73,3.76,21.62,21.62,0,0,0-2.72,2.56,6.75,6.75,0,0,1-4.41,2.52c-5.75,4.63-12,6.85-17.61,12.25-6.18,7-13.43,8.16-20.22,11.88a24.89,24.89,0,0,0-4.83,2.28c-2.12,1.66-4.1,3.76-6.17,5.58-1.05.94-2.14,1.71-3.17,2.68-30.78,28.9-61.19,24-91.39-3-2.37-.78-4.41-2.84-6.37-5.21-1-.83-2.06-1.63-3.11-2.34-10.75-4.81-21.38-10.29-31.28-19.5a85.19,85.19,0,0,1-11.67-8.29c-1.9-1-3.6-2.8-5.41-4.16-.92-.49-1.83-1-2.74-1.58a14.52,14.52,0,0,0-5.5-3.1,36.31,36.31,0,0,1-4.55-.92c-15-8.85-30.29-16-44.69-27.9C93.43,96.55,92,97.29,91,99.87Z"/><path class="cls-7" d="M34.27,124.4c4.89,24.06,2,49.49,4,74.23,2.51,30.69,2.21,62.11,3.12,93.22H4c-6-14.36-3.14-30.4-2.7-45.94,1.95-8.49,5.4-4.85,9.75-.29-3-30.55,4-55.9,5-82.87C16.94,141.5,25.43,126.23,34.27,124.4Z"/><path class="cls-8" d="M473.77,57.77l-2.58-4.91c2.32-4.63,6.69-3.51,8.72-10.89,1.45-13.45,3.45-28,3-43.12h32.71c.78,5,3.63,11.19-2.26,12.21-.67-.65-1.77-2.13-1.94-1.84-11.26,19-26.57,34.44-28,64.88-3.39,72.45-5.13,145.15-7.53,217.75H466.6c-3.79-6.68-3.49-14.71-2.71-23.27C468,224,467.5,178.82,469.94,134,471.33,108.63,473.67,83.36,473.77,57.77Z"/><path class="cls-9" d="M4.15,241.7,4,291.85H-.66c-1.71-4.37-1.14-9.38-1.15-14.15q0-132.34,0-264.69c0-4.78-.56-9.79,1.15-14.16H8.68L11,15.6C8.33,21.76,9.35,28.91,9.35,35.76c0,58.51.14,117-.14,175.52C9.16,222,10.53,234.1,4.15,241.7Z"/><path class="cls-10" d="M513.41,11.06c2-3.32,2-7.82,2.26-12.21C519.4-2.58,518,2.59,518,5.13q.09,138.14,0,276.26c0,5.56,1.16,13.09-4.66,10.46Q513.38,151.46,513.41,11.06Z"/><path class="cls-11" d="M45.7,62.85l9.71,229H50.74q-5-108.26-9.85-216.54c-.25-5.81-3.61-14.21,2.58-17.38l0-.21A8.49,8.49,0,0,1,45.7,62.85Z"/><path class="cls-12" d="M473.77,57.77c4.26,1.79,3.51,6.85,3.22,12.88q-5.37,110.57-10.39,221.2h-4.67c-.59-48.94,3.45-97.35,5.48-146,1.06-25.29-.09-51,3.93-75.85l.37-7.44a9.58,9.58,0,0,1,2-5Z"/><path class="cls-13" d="M471.34,70c-1.8,74.12-4.78,148.09-9.41,221.82h-2.34c-.63-48.65,3.62-96.73,5.83-145,1.17-25.51-.25-51.43,3.33-76.59Z"/><path class="cls-14" d="M91,99.87c-1.93-5.91-7.11-5.59-8.68-17.05,20.27,15.46,41.16,20,59.91,36.78,9.3,11.45,19.88,18.48,29.83,27.71,7.15,4.92,13.45,12.57,19.81,20,3.85,4.49,7.61,9.46,6.78,19.39-1.13,2.82-2.69,3.69-4.55,3.14a8.91,8.91,0,0,1-3.23-2.2l0-.46a15.73,15.73,0,0,0-4.82-4.44l-2.45-1.94a45.74,45.74,0,0,0-3.6-2.93,25.8,25.8,0,0,1-2.3-2.17c-1.15-1-2.35-1.88-3.52-2.86-.79-.59-1.58-1.16-2.39-1.7l-3.88-.74a24.92,24.92,0,0,1-2.69-3.87l-.18-.16c-1.27-2.77-3.35-2-4.89-3.55l-6.41-4.74C134.32,133.53,110.72,123.42,91,99.87Z"/><path class="cls-15" d="M192.93,187.57l5.86-1.06c1.62-3.85,3.9-4.87,6.43-4.81,14.4,8.1,27.51,21.52,40.51,34.62,10.36,10.43,18.45,6.93,28-2.11s18.55-23.21,30.75-20.78c2.48.75,4.78,2,5.91,6.62-15.86,18.75-33.74,30.23-50.74,45.72-19.92-12-37.45-32.92-56.93-46.06-1.31-2.46-3.5-1.59-4.81-4.05h0c-1.23-2.59-3.36-1.8-4.68-4.06l-.09-.11a3.81,3.81,0,0,1-.57-2.53C192.66,188,192.79,187.57,192.93,187.57Z"/><path class="cls-16" d="M310.39,200.05l-7.69-.84c-.85-7,1.72-10.76,4.25-14.59a9.31,9.31,0,0,1,2.92-2.46c1-.68,2-1.31,3-1.94,5.74-3,9.56-12.94,15.79-14.23,4.75.52,9.65-5.51,14.28.87l2.1,3.86C334.3,183.49,322.83,193.63,310.39,200.05Z"/><path class="cls-15" d="M183.87,179c3.19.37,5.57,3,7,8.15l-4.47,0c-.88-1.26-1.67-2.68-2.53-4l-.09-.06a3.67,3.67,0,0,1-.53-2.77C183.48,179.45,183.68,179,183.87,179Z"/><path class="cls-4" d="M160.18,162.79l4.89,3.55Z"/><path class="cls-4" d="M179,179.47q-2.43-2.1-4.84-4.22L175,173c1.51-.4,3-.66,4.12,1.81l0,.14.85,2.36Z"/><path class="cls-4" d="M183.87,179q0,2.06-.06,4.11L179,179.47l.29-.72c1.54-2.52,3.06-2.35,4.56.13Z"/><path class="cls-4" d="M193.22,191.59l4.68,4.06Z"/><path class="cls-4" d="M197.91,195.66l4.81,4.05Z"/><path class="cls-4" d="M165.25,166.5l2.69,3.87Z"/><path class="cls-4" d="M171.82,171.11l2.36-.3,1.9,1.4c-.51.82-1,1.64-1.52,2.46l-.41.58Q173,173.18,171.82,171.11Z"/><path class="cls-4" d="M192.93,187.57c.12,1.3.19,2.6.2,3.91l-2.27-3.87A7.18,7.18,0,0,1,192.93,187.57Z"/><path class="cls-4" d="M183.9,183.17l2.53,4Z"/><path class="cls-17" d="M4.15,241.7V18.81c2.46-6.92,4.7-4.42,6.85-3.21,1.11,2.85,1.89,6.58,3.38,8.41,20.33,24.84,20,62.65,19.89,100.39C26,138.91,22.05,156.11,20,177c-3.18,31.47-3.12,64.28-9.9,97.47C4,263.48,8.5,250.05,4.15,241.7Z"/><path class="cls-18" d="M309.76,190.64l-7.06,8.57-44.94,38.85-52.84-50.24c-2.68-4.66-7.21-6.31-8-14-.8-8.39-3.25-19.55,6-16.4.78-.21,1.46.17,2,1.13,1.52,1.9,3.47,1.43,5.05,3,7,4,14.45,6.33,20.9,12.22,18.36,16.77,36.18,16,54.49,0,6.22-5.42,13.24-7.89,19.89-11.7,1.3-2.36,3.16-1.79,4.7-2.84l4.2-1.69c7.08-3.83,7.07,4.08,5.72,12.14a40.7,40.7,0,0,1-7.47,17.73l0,0C311.61,188.61,310.87,190.11,309.76,190.64Z"/><path class="cls-19" d="M343,166.86c-4.8,3-9.14,8.68-14.56,7.94-1.16-11,3-15.1,7.52-18.81,10.19-10.12,21.61-16.46,30.28-31.35,10.79-10.22,36.47-23.28,46.44-21.5C390.36,127.55,366.71,147.37,343,166.86Z"/><path class="cls-20" d="M203,157.39c-5,11.29-.68,20.69,1.94,30.43l-6.13-1.31L170.21,153.8c-2.77-5.55-3.35-11.11-.05-16.71C181.35,142.54,192.41,148.71,203,157.39Z"/><path class="cls-21" d="M338.08,162.12l-9.67,12.68c-5.71,2.55-9.79,11.72-15.92,12.54.48-7.63-1.71-16.15,4-21.65,2.44-2.35.16-6.77-2.26-8.22,6.33-7.62,13.78-9.49,20.91-13C342.68,146.06,342.94,147.62,338.08,162.12Z"/><path class="cls-22" d="M338.08,162.12c-.53-6.13,2.94-14.38-2.93-17.66,5.76-7.28,12.77-8.59,19.16-12.85a20,20,0,0,0,2.92-2.47,3.79,3.79,0,0,0,1.46-.83c2.21-3.21,5.39-.16,7.54-3.76l0,.09c2.21,1.35,3.69,3.52,1.06,6.81C358,143,348.9,155.21,338.08,162.12Z"/><path class="cls-23" d="M170.16,137.09l.05,16.71c-9.7-10.43-21.78-14.6-28-34.2l3.79,1c1.59,1.87,3.78,1.22,5.18,3.91l0,0c2,3.73,5.07.53,7.14,3.69Z"/><path class="cls-14" d="M158.31,128.16c-2.71.82-5.12-.21-7.14-3.69C153.85,123.84,156.23,125.09,158.31,128.16Z"/><path class="cls-19" d="M366.23,124.55c-2,4.54-4.76,4.23-7.54,3.76C360.82,124.61,363.48,124.29,366.23,124.55Z"/><path class="cls-20" d="M210.06,161.48c-2,.6-3.64-.47-5.05-3C206.93,158.21,208.69,158.79,210.06,161.48Z"/><path class="cls-21" d="M310,159.16c-1.24,2.68-2.88,3.24-4.7,2.84Z"/><path class="cls-14" d="M151.19,124.49c-2.16.56-3.78-1.2-5.18-3.91C148.11,120.29,149.91,121.31,151.19,124.49Z"/><path class="cls-19" d="M357.23,129.14l-2.92,2.47Z"/><path class="cls-8" d="M473.74,57.63c-.68,1.65-1.35,3.3-2,5C472.39,60.93,473.06,59.28,473.74,57.63Z"/><path class="cls-2" d="M45.7,62.85l-2.21-5.13Z"/><path class="cls-15" d="M183.84,178.88l-4.56-.13a37,37,0,0,1-.14-3.8Z"/><path class="cls-15" d="M174.56,174.67c-.12-1.29-.25-2.57-.38-3.86l4.94,4Z"/><path class="cls-21" d="M309.76,190.64l2.69-3.28Z"/></svg>